TITLE ""
FILE "DISC1Track27.mp3" MP3
  TRACK 01 AUDIO
    TITLE "DISC1Track27_01"
    INDEX 01 00:00:00
  TRACK 02 AUDIO
    TITLE "DISC1Track27_02"
    INDEX 01 00:05:55
  TRACK 03 AUDIO
    TITLE "DISC1Track27_03"
    INDEX 01 00:06:01
  TRACK 04 AUDIO
    TITLE "DISC1Track27_04"
    INDEX 01 00:08:47
  TRACK 05 AUDIO
    TITLE "DISC1Track27_05"
    INDEX 01 00:11:10
  TRACK 06 AUDIO
    TITLE "DISC1Track27_06"
    INDEX 01 00:13:42
  TRACK 07 AUDIO
    TITLE "DISC1Track27_07"
    INDEX 01 00:13:66
  TRACK 08 AUDIO
    TITLE "DISC1Track27_08"
    INDEX 01 00:15:20
  TRACK 09 AUDIO
    TITLE "DISC1Track27_09"
    INDEX 01 00:16:54
  TRACK 10 AUDIO
    TITLE "DISC1Track27_10"
    INDEX 01 00:18:04
  TRACK 11 AUDIO
    TITLE "DISC1Track27_11"
    INDEX 01 00:18:28
  TRACK 12 AUDIO
    TITLE "DISC1Track27_12"
    INDEX 01 00:20:64
  TRACK 13 AUDIO
    TITLE "DISC1Track27_13"
    INDEX 01 00:23:60
  TRACK 14 AUDIO
    TITLE "DISC1Track27_14"
    INDEX 01 00:26:49
  TRACK 15 AUDIO
    TITLE "DISC1Track27_15"
    INDEX 01 00:26:74
  TRACK 16 AUDIO
    TITLE "DISC1Track27_16"
    INDEX 01 00:28:20
  TRACK 17 AUDIO
    TITLE "DISC1Track27_17"
    INDEX 01 00:29:43
  TRACK 18 AUDIO
    TITLE "DISC1Track27_18"
    INDEX 01 00:30:58
  TRACK 19 AUDIO
    TITLE "DISC1Track27_19"
    INDEX 01 00:31:09
  TRACK 20 AUDIO
    TITLE "DISC1Track27_20"
    INDEX 01 00:33:55
  TRACK 21 AUDIO
    TITLE "DISC1Track27_21"
    INDEX 01 00:36:12
  TRACK 22 AUDIO
    TITLE "DISC1Track27_22"
    INDEX 01 00:38:38
  TRACK 23 AUDIO
    TITLE "DISC1Track27_23"
    INDEX 01 00:38:62
  TRACK 24 AUDIO
    TITLE "DISC1Track27_24"
    INDEX 01 00:39:73
  TRACK 25 AUDIO
    TITLE "DISC1Track27_25"
    INDEX 01 00:41:25
  TRACK 26 AUDIO
    TITLE "DISC1Track27_26"
    INDEX 01 00:42:46
  TRACK 27 AUDIO
    TITLE "DISC1Track27_27"
    INDEX 01 00:42:69
  TRACK 28 AUDIO
    TITLE "DISC1Track27_28"
    INDEX 01 00:45:46
  TRACK 29 AUDIO
    TITLE "DISC1Track27_29"
    INDEX 01 00:48:45
  TRACK 30 AUDIO
    TITLE "DISC1Track27_30"
    INDEX 01 00:51:37
  TRACK 31 AUDIO
    TITLE "DISC1Track27_31"
    INDEX 01 00:51:61
  TRACK 32 AUDIO
    TITLE "DISC1Track27_32"
    INDEX 01 00:53:36
  TRACK 33 AUDIO
    TITLE "DISC1Track27_33"
    INDEX 01 00:54:73
  TRACK 34 AUDIO
    TITLE "DISC1Track27_34"
    INDEX 01 00:56:25
  TRACK 35 AUDIO
    TITLE "DISC1Track27_35"
    INDEX 01 00:56:50
  TRACK 36 AUDIO
    TITLE "DISC1Track27_36"
    INDEX 01 00:59:44
  TRACK 37 AUDIO
    TITLE "DISC1Track27_37"
    INDEX 01 01:01:65
  TRACK 38 AUDIO
    TITLE "DISC1Track27_38"
    INDEX 01 01:04:01
  TRACK 39 AUDIO
    TITLE "DISC1Track27_39"
    INDEX 01 01:04:26
  TRACK 40 AUDIO
    TITLE "DISC1Track27_40"
    INDEX 01 01:05:72
  TRACK 41 AUDIO
    TITLE "DISC1Track27_41"
    INDEX 01 01:07:64
  TRACK 42 AUDIO
    TITLE "DISC1Track27_42"
    INDEX 01 01:09:49
  TRACK 43 AUDIO
    TITLE "DISC1Track27_43"
    INDEX 01 01:09:74
  TRACK 44 AUDIO
    TITLE "DISC1Track27_44"
    INDEX 01 01:12:04
  TRACK 45 AUDIO
    TITLE "DISC1Track27_45"
    INDEX 01 01:14:11
  TRACK 46 AUDIO
    TITLE "DISC1Track27_46"
    INDEX 01 01:16:12
  TRACK 47 AUDIO
    TITLE "DISC1Track27_47"
    INDEX 01 01:16:35
  TRACK 48 AUDIO
    TITLE "DISC1Track27_48"
    INDEX 01 01:20:33
  TRACK 49 AUDIO
    TITLE "DISC1Track27_49"
    INDEX 01 01:23:04
  TRACK 50 AUDIO
    TITLE "DISC1Track27_50"
    INDEX 01 01:25:46
  TRACK 51 AUDIO
    TITLE "DISC1Track27_51"
    INDEX 01 01:25:71
  TRACK 52 AUDIO
    TITLE "DISC1Track27_52"
    INDEX 01 01:27:39
  TRACK 53 AUDIO
    TITLE "DISC1Track27_53"
    INDEX 01 01:29:10
  TRACK 54 AUDIO
    TITLE "DISC1Track27_54"
    INDEX 01 01:30:55
  TRACK 55 AUDIO
    TITLE "DISC1Track27_55"
    INDEX 01 01:31:01
  TRACK 56 AUDIO
    TITLE "DISC1Track27_56"
    INDEX 01 01:32:61
  TRACK 57 AUDIO
    TITLE "DISC1Track27_57"
    INDEX 01 01:35:13
  TRACK 58 AUDIO
    TITLE "DISC1Track27_58"
    INDEX 01 01:37:31
  TRACK 59 AUDIO
    TITLE "DISC1Track27_59"
    INDEX 01 01:37:57
  TRACK 60 AUDIO
    TITLE "DISC1Track27_60"
    INDEX 01 01:39:30
  TRACK 61 AUDIO
    TITLE "DISC1Track27_61"
    INDEX 01 01:41:25
  TRACK 62 AUDIO
    TITLE "DISC1Track27_62"
    INDEX 01 01:43:22
  TRACK 63 AUDIO
    TITLE "DISC1Track27_63"
    INDEX 01 01:43:46
  TRACK 64 AUDIO
    TITLE "DISC1Track27_64"
    INDEX 01 01:45:72
  TRACK 65 AUDIO
    TITLE "DISC1Track27_65"
    INDEX 01 01:48:60
  TRACK 66 AUDIO
    TITLE "DISC1Track27_66"
    INDEX 01 01:51:39
  TRACK 67 AUDIO
    TITLE "DISC1Track27_67"
    INDEX 01 01:51:61
  TRACK 68 AUDIO
    TITLE "DISC1Track27_68"
    INDEX 01 01:52:74
  TRACK 69 AUDIO
    TITLE "DISC1Track27_69"
    INDEX 01 01:54:32
  TRACK 70 AUDIO
    TITLE "DISC1Track27_70"
    INDEX 01 01:55:57
  TRACK 71 AUDIO
    TITLE "DISC1Track27_71"
    INDEX 01 01:56:07
  TRACK 72 AUDIO
    TITLE "DISC1Track27_72"
    INDEX 01 01:58:65
  TRACK 73 AUDIO
    TITLE "DISC1Track27_73"
    INDEX 01 02:01:45
  TRACK 74 AUDIO
    TITLE "DISC1Track27_74"
    INDEX 01 02:04:18
  TRACK 75 AUDIO
    TITLE "DISC1Track27_75"
    INDEX 01 02:04:42
  TRACK 76 AUDIO
    TITLE "DISC1Track27_76"
    INDEX 01 02:06:17
  TRACK 77 AUDIO
    TITLE "DISC1Track27_77"
    INDEX 01 02:07:46
  TRACK 78 AUDIO
    TITLE "DISC1Track27_78"
    INDEX 01 02:09:53
